<?xml version="1.0" encoding="utf-8"?>
<!-- Generator: Adobe Illustrator 27.5.0, SVG Export Plug-In . SVG Version: 6.00 Build 0)  -->
<svg version="1.1" xmlns="http://www.w3.org/2000/svg" xmlns:xlink="http://www.w3.org/1999/xlink" x="0px" y="0px"
	 viewBox="0 0 500 500" style="enable-background:new 0 0 500 500;" xml:space="preserve">
<g id="Floor">
	<path style="fill:#F5F5F5;" d="M403.676,264.858c-85.812-49.544-224.486-49.543-309.74,0.001
		C8.676,314.406,9.128,394.732,94.94,444.275c85.817,49.546,224.492,49.546,309.751-0.002
		C489.945,394.73,489.493,314.404,403.676,264.858z"/>
</g>
<g id="Shadows_1_">
	<path style="opacity:0.1;" d="M233.923,339.832l-25.008-14.493l-14.811,8.551l-16.844-9.762L53.94,395.327
		c-0.771,0.445-0.772,1.558-0.002,2.005l22.689,13.149c1.434,0.831,3.203,0.833,4.639,0.004l12.49-7.211l14.526,8.418
		c1.434,0.831,3.203,0.833,4.639,0.004l121-69.859C234.693,341.392,234.694,340.279,233.923,339.832z"/>
	<polygon style="opacity:0.1;" points="211.963,324.206 220.647,329.231 293.578,287.124 284.894,282.1 	"/>
	<path style="opacity:0.1;" d="M407.661,341.894l-44.311-25.583c-1.306-0.754-1.309-2.639-0.005-3.397l39.053-22.695
		c0.608-0.353,1.359-0.354,1.967-0.003l45.295,26.151c1.306,0.754,1.309,2.639,0.005,3.396l-38.07,22.124
		C410.379,342.595,408.878,342.597,407.661,341.894z"/>
	<path style="opacity:0.1;" d="M362.03,363.991c-20.37-11.761-53.288-11.76-73.525,0c-20.239,11.761-20.131,30.829,0.238,42.589
		c20.371,11.761,53.289,11.761,73.528,0C382.509,394.82,382.401,375.753,362.03,363.991z"/>
</g>
<g id="Window">
	<g>
		<g>
			<g style="enable-background:new    ;">
				<g>
					<polygon style="fill:#F0F0F0;" points="306.611,48.971 311.612,46.065 311.319,149.469 306.318,152.376 					"/>
				</g>
				<g>
					<polygon style="fill:#F5F5F5;" points="306.318,152.376 311.319,149.469 455.568,232.751 450.567,235.658 					"/>
				</g>
				<g>
					<path style="fill:#E0E0E0;" d="M300.875,39.037l155.758,89.927l-0.331,116.628l-155.757-89.926L300.875,39.037z
						 M450.567,235.658l0.293-103.404L306.611,48.971l-0.293,103.404L450.567,235.658"/>
				</g>
				<g>
					<polygon style="fill:#F5F5F5;" points="300.875,39.037 305.877,36.13 461.634,126.057 456.633,128.964 					"/>
				</g>
				<g>
					<polygon style="fill:#F0F0F0;" points="456.633,128.964 461.634,126.057 461.304,242.685 456.302,245.592 					"/>
				</g>
			</g>
		</g>
		<g>
			<polygon style="fill:#E0E0E0;" points="375.854,88.951 375.56,192.356 381.315,195.678 381.608,92.273 			"/>
			<polygon style="fill:#F0F0F0;" points="381.61,92.272 381.608,92.273 381.315,195.678 386.316,192.771 386.593,95.149 			"/>
			
				<rect x="378.73" y="87.29" transform="matrix(0.5 -0.866 0.866 0.5 110.8948 373.2982)" style="fill:#E0E0E0;" width="0.003" height="6.644"/>
		</g>
		<polygon style="opacity:0.2;" points="381.595,96.916 381.608,92.273 375.854,88.951 375.84,93.594 381.595,96.916 		"/>
		<polygon style="opacity:0.2;" points="381.595,96.916 385.63,94.593 381.61,92.272 381.608,92.273 		"/>
		
			<rect x="378.73" y="87.29" transform="matrix(0.5 -0.866 0.866 0.5 110.8911 373.2947)" style="fill:#E0E0E0;" width="0.003" height="6.644"/>
	</g>
</g>
<g id="Table">
	<g>
		<polygon style="fill:#E6E6E6;" points="371.326,312.006 367.451,314.258 367.463,309.776 		"/>
		<polygon style="fill:#787878;" points="367.558,288.082 367.558,288.034 367.558,288.034 367.558,288.034 		"/>
		<rect x="386.413" y="277.148" style="fill:#CFCFCF;" width="0" height="43.544"/>
		<polygon style="fill:#CFCFCF;" points="367.619,266.269 405.33,288.041 405.33,288.041 		"/>
		<path style="fill:#EBEBEB;" d="M371.326,312.006l33.917,19.582l-0.013,4.483l4.037,2.331l0.149-52.685l-45.853-26.473
			l-0.149,52.685l4.037,2.331l0.013-4.483L371.326,312.006z M405.281,305.13l-37.71-21.772l0.048-17.089l37.71,21.772l0,0l0,0
			L405.281,305.13z M405.219,326.891l-37.71-21.772l0.048-17.036l0-0.048l0,0l37.71,21.772l0,0l0,0L405.219,326.891z"/>
		<polygon style="fill:#F5F5F5;" points="367.509,305.118 367.558,288.082 367.558,288.034 405.268,309.806 405.268,309.806 
			405.219,326.891 		"/>
		<polygon style="fill:#F5F5F5;" points="367.571,283.358 367.619,266.269 405.33,288.041 405.33,288.041 405.281,305.13 		"/>
		<polygon style="fill:#E6E6E6;" points="409.416,285.716 449.447,262.453 449.297,315.138 409.267,338.401 		"/>
		<polygon style="fill:#F5F5F5;" points="409.416,285.716 363.563,259.243 403.594,235.98 449.447,262.453 		"/>
	</g>
</g>
<g id="Plant">
	<g>
		<g>
			<path style="fill:#37474F;" d="M418.811,241.753l-12.775,0.372l-12.775-0.372c-0.55,8.627,1.134,17.419,3.456,21.713l0.009-0.001
				c0.416,0.942,1.252,1.836,2.529,2.573c3.77,2.176,9.861,2.176,13.606,0c1.298-0.755,2.133-1.673,2.527-2.64
				C417.693,259.081,419.358,250.337,418.811,241.753z"/>
			<g>
				<path style="fill:#455A64;" d="M415.039,236.521c5.005,2.89,5.032,7.575,0.059,10.465c-4.973,2.89-13.061,2.89-18.066,0
					c-5.005-2.89-5.031-7.575-0.059-10.465C401.946,233.631,410.035,233.631,415.039,236.521z"/>
			</g>
			<g>
				<path style="fill:#263238;" d="M413.06,237.671c3.905,2.255,3.926,5.91,0.046,8.164c-3.88,2.255-10.19,2.255-14.095,0
					c-3.905-2.255-3.925-5.91-0.046-8.164C402.845,235.416,409.156,235.416,413.06,237.671z"/>
			</g>
		</g>
		<g>
			<path style="fill:#BA68C8;" d="M404.97,242.114c2.145,1.757,5.018,2.409,7.493,1.704c2.469-0.703,4.48-2.739,5.251-5.31
				c-1.562-0.679-2.791-1.679-4.101-2.846c1.826-0.481,3.945-0.406,5.806,0.205c1.006-1.535,1.264-3.745,0.438-5.537
				c-2.203-0.967-4.733-1.147-6.926-0.479c1.941-1.681,4.408-2.462,7.003-2.207c0.255-6.278-1.682-10.758-1.682-10.758
				c-4.763,0.248-9.381,2.3-10.938,3.777c-0.265,1.905,0.527,5.06,0.527,5.06c-2.176-1.206-2.213-3.272-2.213-3.272
				c-2.98,0.745-4.255,2.233-4.72,3.368c0.219,1.866,1.941,4.986,2.821,5.716c-2.799-0.846-3.934-3.964-3.934-3.964
				C397.044,234.095,397.569,241.479,404.97,242.114z"/>
			<path style="opacity:0.2;" d="M404.97,242.114c2.145,1.757,5.018,2.409,7.493,1.704c2.469-0.703,4.48-2.739,5.251-5.31
				c-1.562-0.679-2.791-1.679-4.101-2.846c1.826-0.481,3.945-0.406,5.806,0.205c1.006-1.535,1.264-3.745,0.438-5.537
				c-2.203-0.967-4.733-1.147-6.926-0.479c1.941-1.681,4.408-2.462,7.003-2.207c0.255-6.278-1.682-10.758-1.682-10.758
				c-4.763,0.248-9.381,2.3-10.938,3.777c-0.265,1.905,0.527,5.06,0.527,5.06c-2.176-1.206-2.213-3.272-2.213-3.272
				c-2.98,0.745-4.255,2.233-4.72,3.368c0.219,1.866,1.941,4.986,2.821,5.716c-2.799-0.846-3.934-3.964-3.934-3.964
				C397.044,234.095,397.569,241.479,404.97,242.114z"/>
			<g>
				<path style="fill:#F5F5F5;" d="M404.804,242.82c-0.007,0-0.014,0-0.022-0.001c-0.152-0.012-0.265-0.144-0.254-0.295
					c0.455-6.015,3.896-15.944,12.101-24.134c0.107-0.107,0.282-0.107,0.389,0.001c0.108,0.107,0.108,0.281,0,0.389
					c-8.098,8.083-11.493,17.865-11.94,23.785C405.066,242.71,404.946,242.82,404.804,242.82z"/>
			</g>
		</g>
		<g>
			<path style="fill:#BA68C8;" d="M407.054,245.332c-1.902,1.552-4.56,2.129-6.934,1.504c-2.374-0.624-4.405-2.434-5.297-4.72
				c1.437-0.6,2.537-1.486,3.702-2.518c-1.757-0.435-3.76-0.375-5.487,0.162c-1.054-1.372-1.44-3.344-0.769-4.939
				c2.032-0.85,4.42-0.995,6.537-0.387c-1.942-1.509-4.331-2.222-6.781-2.012c-0.644-5.614,0.915-9.604,0.915-9.604
				c4.54,0.275,9.034,2.155,10.594,3.485c0.367,1.697-0.183,4.494-0.183,4.494c1.972-1.055,1.88-2.889,1.88-2.889
				c2.843,0.688,4.127,2.018,4.632,3.027c-0.092,1.651-1.513,4.402-2.293,5.044c2.568-0.734,3.44-3.485,3.44-3.485
				C413.968,238.273,413.922,244.779,407.054,245.332z"/>
			<g>
				<path style="fill:#FFFFFF;" d="M407.236,245.989c-0.134,0-0.251-0.098-0.271-0.235c-0.781-5.237-4.587-13.93-12.741-21.194
					c-0.113-0.101-0.123-0.275-0.022-0.389c0.1-0.114,0.274-0.123,0.388-0.023c8.263,7.362,12.123,16.196,12.918,21.524
					c0.022,0.15-0.081,0.29-0.231,0.313C407.264,245.988,407.25,245.989,407.236,245.989z"/>
			</g>
		</g>
	</g>
</g>
<g id="Picture">
	<g>
		<g>
			<polygon style="fill:none;" points="115.543,103.805 75.986,126.643 76.072,156.876 115.629,134.038 			"/>
			<polygon style="fill:#F0F0F0;" points="115.543,103.805 115.629,134.038 119.293,136.167 119.195,101.696 			"/>
			<polygon style="fill:#F5F5F5;" points="76.072,156.876 76.084,161.113 119.293,136.167 115.629,134.038 			"/>
			<path style="fill:#E0E0E0;" d="M123.608,94.06l-52.064,30.059l0.126,44.638l52.064-30.059L123.608,94.06z M76.084,161.113
				l-0.012-4.238l-0.086-30.233l39.557-22.838l3.652-2.108l0.098,34.47L76.084,161.113z"/>
			<polygon style="fill:#F5F5F5;" points="123.608,94.06 119.944,91.93 67.88,121.99 71.544,124.119 			"/>
			<polygon style="fill:#F0F0F0;" points="67.88,121.99 68.007,166.628 71.671,168.758 71.544,124.119 			"/>
		</g>
		<g>
			<g style="enable-background:new    ;">
				<g>
					<polygon style="fill:#E0E0E0;" points="102.974,115.284 113.762,123.778 113.786,132.076 77.906,152.791 77.882,144.493 
						84.72,130.912 90.86,135.679 88.689,142.423 91.84,136.434 					"/>
				</g>
				<g>
					<path style="fill:#E0E0E0;" d="M91.189,119.466c1.689-0.975,3.063-0.192,3.068,1.748c0.006,1.94-1.36,4.305-3.048,5.28
						c-1.688,0.975-3.063,0.192-3.068-1.749C88.136,122.805,89.5,120.441,91.189,119.466z"/>
				</g>
			</g>
		</g>
	</g>
	<g>
		<g>
			<polygon style="fill:none;" points="181.784,66.456 142.228,89.294 142.314,119.527 181.87,96.689 			"/>
			<polygon style="fill:#F0F0F0;" points="181.784,66.456 181.87,96.689 185.534,98.818 185.436,64.347 			"/>
			<polygon style="fill:#F5F5F5;" points="142.314,119.527 142.326,123.765 185.534,98.818 181.87,96.689 			"/>
			<path style="fill:#E0E0E0;" d="M189.85,56.711L137.786,86.77l0.126,44.638l52.064-30.059L189.85,56.711z M142.326,123.765
				l-0.012-4.238l-0.086-30.233l39.557-22.838l3.652-2.109l0.098,34.471L142.326,123.765z"/>
			<polygon style="fill:#F5F5F5;" points="189.85,56.711 186.186,54.582 134.122,84.641 137.786,86.77 			"/>
			<polygon style="fill:#F0F0F0;" points="134.122,84.641 134.248,129.279 137.912,131.409 137.786,86.77 			"/>
		</g>
		<g>
			<g style="enable-background:new    ;">
				<g>
					<polygon style="fill:#E0E0E0;" points="169.216,77.935 180.004,86.429 180.027,94.727 144.147,115.442 144.124,107.144 
						150.962,93.563 157.101,98.33 154.931,105.075 158.081,99.086 					"/>
				</g>
				<g>
					<path style="fill:#E0E0E0;" d="M157.431,82.117c1.689-0.975,3.063-0.192,3.068,1.749c0.005,1.94-1.359,4.305-3.048,5.279
						c-1.689,0.975-3.063,0.192-3.068-1.748C154.377,85.456,155.742,83.092,157.431,82.117z"/>
				</g>
			</g>
		</g>
	</g>
</g>
<g id="Notes">
	<g>
		<polygon style="fill:#BA68C8;" points="284.894,128.439 211.963,170.545 212.258,274.628 285.189,232.522 		"/>
	</g>
	<g>
		<polygon style="fill:#BA68C8;" points="288.993,130.837 216.062,172.943 216.357,277.027 289.288,234.92 		"/>
		<polygon style="opacity:0.4;fill:#FFFFFF;" points="288.993,130.837 216.062,172.943 216.357,277.027 289.288,234.92 		"/>
	</g>
	<g>
		<polygon style="fill:#BA68C8;" points="293.578,133.463 220.647,175.57 220.943,279.653 293.873,237.546 		"/>
		<polygon style="opacity:0.6;fill:#FFFFFF;" points="293.578,133.463 220.647,175.57 220.943,279.653 293.873,237.546 		"/>
	</g>
	<g>
		<g>
			<path style="fill:#EBEBEB;" d="M256.026,140.664c7.074-4.084,12.831-0.803,12.854,7.325c0.023,8.136-5.697,18.036-12.771,22.12
				c-7.08,4.088-12.838,0.814-12.861-7.321C243.225,154.66,248.946,144.752,256.026,140.664z"/>
		</g>
		<g>
			<path style="fill:#BA68C8;" d="M256.587,150.36c0.538-0.311,0.976-0.061,0.978,0.557l0.009,3.234l2.814-1.625
				c0.538-0.311,0.976-0.061,0.978,0.557c0.002,0.618-0.433,1.372-0.971,1.682l-2.814,1.625l0.009,3.234
				c0.002,0.618-0.434,1.372-0.971,1.682c-0.538,0.311-0.976,0.061-0.978-0.557l-0.009-3.234l-2.814,1.625
				c-0.542,0.313-0.976,0.061-0.978-0.557c-0.002-0.618,0.429-1.37,0.971-1.682l2.814-1.625l-0.009-3.234
				C255.613,151.424,256.049,150.67,256.587,150.36z"/>
		</g>
	</g>
	<g>
		<g>
			<g>
				<polygon style="fill:#BA68C8;" points="199.072,166.456 78.458,236.093 78.946,408.227 199.56,338.591 				"/>
				<polygon style="fill:#BA68C8;" points="54.861,222.38 55.349,394.514 78.946,408.227 78.458,236.093 				"/>
				<polygon style="fill:#BA68C8;" points="199.072,166.456 175.475,152.743 54.861,222.38 78.458,236.093 				"/>
			</g>
			<polygon style="opacity:0.2;fill:#FFFFFF;" points="199.072,166.456 78.458,236.093 78.946,408.227 199.56,338.591 			"/>
			<polygon style="opacity:0.5;fill:#FFFFFF;" points="199.072,166.456 175.475,152.743 54.861,222.38 78.458,236.093 			"/>
		</g>
		<path style="opacity:0.2;" d="M78.458,236.093c0,78.757,8.811,138.318,15.506,163.464l105.596-60.966l-0.488-172.134
			L78.458,236.093z"/>
		<path style="fill:#BA68C8;" d="M233.231,330.95l-120.614,69.636c-9.283-11.17-34.159-65.618-34.159-164.494l120.614-69.636
			C199.072,259.982,220.812,313.712,233.231,330.95z"/>
		<path style="opacity:0.6;fill:#FFFFFF;" d="M233.231,330.95l-120.614,69.636c-9.283-11.17-34.159-65.618-34.159-164.494
			l120.614-69.636C199.072,259.982,220.812,313.712,233.231,330.95z"/>
		<g>
			<path style="fill:#BA68C8;" d="M182.299,248.832l-77.571,44.786c0.157,1.357,0.32,2.695,0.487,4.022l77.717-44.87
				C182.715,251.458,182.504,250.146,182.299,248.832z"/>
			<path style="fill:#BA68C8;" d="M186.072,269.669l-78.318,45.217c0.225,1.321,0.453,2.623,0.686,3.907l78.449-45.292
				C186.61,272.228,186.338,270.951,186.072,269.669z"/>
			<path style="fill:#BA68C8;" d="M184.062,259.322l-77.952,45.005c0.19,1.338,0.384,2.661,0.583,3.966l78.09-45.085
				C184.537,261.916,184.297,260.62,184.062,259.322z"/>
			<path style="fill:#BA68C8;" d="M180.762,238.211l-77.156,44.546c0.125,1.373,0.255,2.732,0.391,4.077l77.314-44.637
				C181.122,240.869,180.939,239.54,180.762,238.211z"/>
			<path style="fill:#BA68C8;" d="M178.329,216.6l-76.233,44.013c0.064,1.406,0.133,2.8,0.208,4.183l76.415-44.118
				C178.583,219.316,178.454,217.956,178.329,216.6z"/>
			<path style="fill:#BA68C8;" d="M179.44,227.466l-76.71,44.289c0.094,1.388,0.191,2.77,0.295,4.132l76.884-44.389
				C179.747,230.153,179.591,228.809,179.44,227.466z"/>
			<path style="fill:#BA68C8;" d="M196.989,309.398l-79.714,46.023c0.39,1.248,0.779,2.456,1.167,3.629l79.855-46.104
				C197.853,311.776,197.418,310.591,196.989,309.398z"/>
			<path style="fill:#BA68C8;" d="M188.341,279.867l-78.663,45.416c0.261,1.302,0.525,2.585,0.792,3.845l78.791-45.49
				C188.948,282.388,188.641,281.131,188.341,279.867z"/>
			<path style="fill:#BA68C8;" d="M193.759,299.754l-79.347,45.811c0.341,1.263,0.683,2.506,1.026,3.71l79.485-45.891
				C194.529,302.185,194.14,300.975,193.759,299.754z"/>
			<path style="fill:#BA68C8;" d="M190.892,289.902l-79.002,45.612c0.299,1.284,0.601,2.545,0.905,3.78l79.132-45.687
				C191.576,292.38,191.231,291.145,190.892,289.902z"/>
		</g>
		<g style="opacity:0.1;">
			<path d="M182.299,248.832l-77.571,44.786c0.157,1.357,0.32,2.695,0.487,4.022l77.717-44.87
				C182.715,251.458,182.504,250.146,182.299,248.832z"/>
			<path d="M186.072,269.669l-78.318,45.217c0.225,1.321,0.453,2.623,0.686,3.907l78.449-45.292
				C186.61,272.228,186.338,270.951,186.072,269.669z"/>
			<path d="M184.062,259.322l-77.952,45.005c0.19,1.338,0.384,2.661,0.583,3.966l78.09-45.085
				C184.537,261.916,184.297,260.62,184.062,259.322z"/>
			<path d="M180.762,238.211l-77.156,44.546c0.125,1.373,0.255,2.732,0.391,4.077l77.314-44.637
				C181.122,240.869,180.939,239.54,180.762,238.211z"/>
			<path d="M178.329,216.6l-76.233,44.013c0.064,1.406,0.133,2.8,0.208,4.183l76.415-44.118
				C178.583,219.316,178.454,217.956,178.329,216.6z"/>
			<path d="M179.44,227.466l-76.71,44.289c0.094,1.388,0.191,2.77,0.295,4.132l76.884-44.389
				C179.747,230.153,179.591,228.809,179.44,227.466z"/>
			<path d="M196.989,309.398l-79.714,46.023c0.39,1.248,0.779,2.456,1.167,3.629l79.855-46.104
				C197.853,311.776,197.418,310.591,196.989,309.398z"/>
			<path d="M188.341,279.867l-78.663,45.416c0.261,1.302,0.525,2.585,0.792,3.845l78.791-45.49
				C188.948,282.388,188.641,281.131,188.341,279.867z"/>
			<path d="M193.759,299.754l-79.347,45.811c0.341,1.263,0.683,2.506,1.026,3.71l79.485-45.891
				C194.529,302.185,194.14,300.975,193.759,299.754z"/>
			<path d="M190.892,289.902l-79.002,45.612c0.299,1.284,0.601,2.545,0.905,3.78l79.132-45.687
				C191.576,292.38,191.231,291.145,190.892,289.902z"/>
		</g>
		<g style="opacity:0.3;">
			<path style="fill:#FFFFFF;" d="M182.299,248.832l-77.571,44.786c0.157,1.357,0.32,2.695,0.487,4.022l77.717-44.87
				C182.715,251.458,182.504,250.146,182.299,248.832z"/>
			<path style="fill:#FFFFFF;" d="M186.072,269.669l-78.318,45.217c0.225,1.321,0.453,2.623,0.686,3.907l78.449-45.292
				C186.61,272.228,186.338,270.951,186.072,269.669z"/>
			<path style="fill:#FFFFFF;" d="M184.062,259.322l-77.952,45.005c0.19,1.338,0.384,2.661,0.583,3.966l78.09-45.085
				C184.537,261.916,184.297,260.62,184.062,259.322z"/>
			<path style="fill:#FFFFFF;" d="M180.762,238.211l-77.156,44.546c0.125,1.373,0.255,2.732,0.391,4.077l77.314-44.637
				C181.122,240.869,180.939,239.54,180.762,238.211z"/>
			<path style="fill:#FFFFFF;" d="M178.329,216.6l-76.233,44.013c0.064,1.406,0.133,2.8,0.208,4.183l76.415-44.118
				C178.583,219.316,178.454,217.956,178.329,216.6z"/>
			<path style="fill:#FFFFFF;" d="M179.44,227.466l-76.71,44.289c0.094,1.388,0.191,2.77,0.295,4.132l76.884-44.389
				C179.747,230.153,179.591,228.809,179.44,227.466z"/>
			<path style="fill:#FFFFFF;" d="M196.989,309.398l-79.714,46.023c0.39,1.248,0.779,2.456,1.167,3.629l79.855-46.104
				C197.853,311.776,197.418,310.591,196.989,309.398z"/>
			<path style="fill:#FFFFFF;" d="M188.341,279.867l-78.663,45.416c0.261,1.302,0.525,2.585,0.792,3.845l78.791-45.49
				C188.948,282.388,188.641,281.131,188.341,279.867z"/>
			<path style="fill:#FFFFFF;" d="M193.759,299.754l-79.347,45.811c0.341,1.263,0.683,2.506,1.026,3.71l79.485-45.891
				C194.529,302.185,194.14,300.975,193.759,299.754z"/>
			<path style="fill:#FFFFFF;" d="M190.892,289.902l-79.002,45.612c0.299,1.284,0.601,2.545,0.905,3.78l79.132-45.687
				C191.576,292.38,191.231,291.145,190.892,289.902z"/>
		</g>
	</g>
</g>
<g id="Character">
	<g>
		<g>
			<path style="fill:#263238;" d="M328.389,397.76c-0.685,1.438-2.859,2.766-5.238,3.159c-2.379,0.392-4.799-0.123-7.188-0.456
				c-3.55-0.495-7.157-0.587-10.728-0.274c-2.224,0.195-4.444,0.547-6.675,0.477c-2.231-0.07-4.525-0.603-6.275-1.988
				c-1.242-0.983-2.135-2.458-2.355-4.003c-0.29,2.014,0.741,4.121,2.355,5.399c1.75,1.385,4.044,1.918,6.275,1.988
				c2.231,0.07,4.451-0.282,6.675-0.477c3.571-0.313,7.177-0.221,10.728,0.274c2.388,0.333,4.978,1.018,7.357,0.626
				c2.379-0.392,4.553-1.721,5.238-3.159L328.389,397.76z"/>
			<g>
				<path style="fill:#FFFFFF;" d="M302.349,393.516c2.002,0,1.266-2.962,3.171-4.947c-0.775,0.045-1.553,0.058-2.331,0.056
					C301.477,391.091,300.997,393.516,302.349,393.516z"/>
				<path style="fill:#FFFFFF;" d="M306.507,393.362c2.013,0,1.484-3.531,3.463-5.591c-0.451,0.155-0.908,0.291-1.371,0.395
					c-0.394,0.089-0.791,0.156-1.19,0.215C305.646,390.877,305.138,393.362,306.507,393.362z"/>
				<path style="fill:#455A64;" d="M326.319,386.592c-0.135-0.653-0.506-1.233-1.041-1.631l-10.818-0.27
					c-1.106,1.477-2.733,2.474-4.49,3.079c-1.979,2.06-1.45,5.591-3.463,5.591c-1.369,0-0.861-2.485,0.903-4.981
					c-0.626,0.092-1.257,0.153-1.89,0.189c-1.905,1.985-1.169,4.947-3.171,4.947c-1.352,0-0.872-2.425,0.84-4.891
					c-0.505-0.002-1.011-0.008-1.515-0.015c-0.458-0.007-0.921-0.038-1.384-0.076c-3.977,3.146-4.316,6.559-3.802,11.914
					c0.685,0.122,1.382,0.195,2.073,0.217c2.231,0.07,4.451-0.282,6.675-0.477c3.571-0.313,7.177-0.221,10.728,0.274
					c2.388,0.333,4.809,0.848,7.188,0.456c2.379-0.392,4.553-1.721,5.238-3.159L326.319,386.592z"/>
				<path style="fill:#FFFFFF;" d="M300.289,388.534c-1.819-0.148-3.659-0.427-5.408-0.001c-2.194,0.536-4.295,2.051-4.867,4.236
					c-0.164,0.628-0.175,1.271-0.085,1.904c0.221,1.545,1.114,3.02,2.355,4.003c1.208,0.956,2.676,1.499,4.202,1.771
					C295.973,395.093,296.312,391.68,300.289,388.534z"/>
			</g>
			<path style="fill:#FFA8A7;" d="M314.152,381.61v5.212c0,1.183,0.959,2.141,2.141,2.141h5.454c1.896,0,3.45-1.504,3.512-3.398
				l0.129-3.955H314.152z"/>
		</g>
		<g>
			<path style="fill:#263238;" d="M350.199,379.292c-0.65,1.302-1.832,2.181-3.282,2.298c-1.42,0.114-2.949-0.257-4.153-1.021
				c-1.877-1.191-2.608-3.066-3.888-4.755c-1.276-1.685-2.912-3.061-4.523-4.418c-1.703-1.433-3.411-2.981-4.323-5.012
				c-0.259-0.576-0.426-1.202-0.512-1.838c-0.166,1.176,0.023,2.438,0.512,3.527c0.912,2.031,2.62,3.579,4.323,5.012
				c1.612,1.356,3.247,2.733,4.523,4.418c1.28,1.689,2.011,3.565,3.888,4.755c1.204,0.764,2.733,1.136,4.153,1.021
				c1.45-0.117,2.632-0.995,3.282-2.297c0.224-0.448,0.234-1.775,0.197-2.905C350.371,378.613,350.312,379.066,350.199,379.292z"/>
			<g>
				<path style="fill:#FFFFFF;" d="M337.909,367.853c-0.155,0.271-0.327,0.586-0.264,0.892c0.064,0.306,0.296,0.57,0.591,0.673
					c0.414,0.144,0.881-0.032,1.216-0.315c0.335-0.282,0.574-0.659,0.844-1.004c0.718-0.916,1.692-1.627,2.783-2.031
					c0.534-0.198,1.096-0.32,1.664-0.367c-0.451-0.411-0.902-0.823-1.353-1.234c-0.851,0.052-1.693,0.244-2.466,0.605
					C339.667,365.661,338.598,366.647,337.909,367.853z"/>
				<path style="fill:#FFFFFF;" d="M338.197,363.554c-1.258,0.589-2.327,1.575-3.016,2.781c-0.155,0.271-0.327,0.586-0.264,0.892
					c0.064,0.306,0.296,0.57,0.591,0.673c0.414,0.144,0.881-0.033,1.216-0.315c0.335-0.282,0.573-0.659,0.844-1.004
					c0.717-0.915,1.693-1.627,2.783-2.03c0.87-0.322,1.81-0.439,2.734-0.361c-0.446-0.407-0.892-0.813-1.338-1.22
					C340.539,362.849,339.299,363.038,338.197,363.554z"/>
				<path style="fill:#FFFFFF;" d="M340.895,362.199c-1.288-1.146-2.645-2.228-4.247-2.837c-1.938-0.736-4.342-0.631-5.837,0.806
					c-1.149,1.105-1.51,2.773-1.293,4.377c0.086,0.635,0.253,1.262,0.512,1.838c0.347,0.772,0.809,1.473,1.341,2.126
					C331.891,363.85,335.936,361.67,340.895,362.199z"/>
				<path style="fill:#455A64;" d="M350.308,374.723c-0.121-1.669-0.21-3.112-1.059-4.554l-2.63-2.758
					c-0.625-0.57-1.25-1.14-1.875-1.71c-0.568,0.048-1.129,0.169-1.664,0.367c-1.091,0.404-2.066,1.115-2.783,2.031
					c-0.27,0.345-0.508,0.722-0.844,1.004c-0.335,0.282-0.802,0.458-1.216,0.315c-0.295-0.102-0.527-0.367-0.591-0.673
					c-0.064-0.306,0.109-0.62,0.264-0.892c0.689-1.206,1.758-2.192,3.016-2.781c0.772-0.361,1.615-0.553,2.466-0.605
					c-0.102-0.093-0.203-0.185-0.305-0.278c-0.924-0.078-1.864,0.039-2.734,0.361c-1.091,0.404-2.066,1.115-2.783,2.03
					c-0.27,0.345-0.509,0.722-0.844,1.004c-0.335,0.282-0.802,0.459-1.216,0.315c-0.295-0.102-0.527-0.367-0.591-0.673
					c-0.064-0.306,0.109-0.62,0.264-0.892c0.689-1.207,1.758-2.192,3.016-2.781c1.101-0.516,2.341-0.704,3.551-0.585
					c-0.016-0.015-0.033-0.03-0.049-0.045c-0.266-0.242-0.534-0.484-0.804-0.724c-4.959-0.53-9.004,1.651-9.523,6.31
					c0.869,1.064,1.926,1.998,2.981,2.886c1.612,1.356,3.247,2.733,4.523,4.418c1.28,1.689,2.011,3.565,3.888,4.755
					c1.204,0.764,2.733,1.136,4.153,1.021c1.45-0.117,2.632-0.995,3.282-2.298c0.113-0.227,0.171-0.679,0.197-1.216
					C350.454,376.857,350.342,375.197,350.308,374.723z"/>
			</g>
			<path style="fill:#FFA8A7;" d="M340.816,366.486l0.309,5.592c3.53,2.036,7.241,0.928,8.478-0.361l0.232-5.231H340.816z"/>
		</g>
		<path style="fill:#FFA8A7;" d="M347.77,245.594c-0.299-0.601-0.492-1.251-0.535-1.926l-0.301-4.798l-34.204,2.196
			c-0.453,2.4-0.91,5.338-1.358,8.666C323.451,252.945,336.717,251.419,347.77,245.594z"/>
		<path style="fill:#FFA8A7;" d="M347.101,226.226l7.287,14.074l-6.617,11.083l7.316,11.575l11.051-17.155
			c1.514-2.349,1.911-5.24,1.13-7.923c-3.496-11.995-7.18-19.54-7.18-19.54L347.101,226.226z"/>
		<path style="fill:#455A64;" d="M341.312,199.039c8.385-1.56,13.176,1.235,20.263,20.2c-2.895,6.488-15.172,8.884-15.172,8.884
			L341.312,199.039z"/>
		<path style="opacity:0.2;fill:#FFFFFF;" d="M341.312,199.039c8.385-1.56,13.176,1.235,20.263,20.2
			c-2.895,6.488-15.172,8.884-15.172,8.884L341.312,199.039z"/>
		<g>
			<polygon style="fill:#FF9192;" points="313.015,179.334 310.189,184.246 313.284,185.39 			"/>
			<path style="fill:#FFA8A7;" d="M312.695,177.144c0.454-4.309,1.715-8.372,4.521-10.432c-0.972,5.648,0.972,12.11,3.231,15.42
				c0.273-1.42,1.019-2.722,2.088-3.695c1.069-0.973,2.685-1.424,4.015-0.857c0.94,0.4,1.636,1.253,2.019,2.199
				c0.746,1.847,0.318,4.11-1.051,5.557c-1.369,1.447-3.605,1.999-5.49,1.356c0.635,3.847,3.92,6.983,7.727,7.827
				c2.494,0.553,5.102,0.221,7.492-0.712l1.168,5.807c-4.728,5.044-12.806,1.655-12.806,1.655l-1.064-5.714
				c-9.299,0.552-10.166,0.394-11.191-4.729C312.792,188.013,312.142,182.395,312.695,177.144z"/>
			<path style="fill:#BA68C8;" d="M311.586,166.82c1.537-3.829,4.995-6.691,8.869-8.109c3.875-1.418,8.132-1.51,12.217-0.935
				c2.521,0.354,5.034,0.966,7.288,2.149c2.254,1.183,4.287,3.074,5.39,5.367l0.478-3.964c0.987,0.202,1.838,0.965,2.145,1.924
				c0.307,0.959-0.045,2.17-0.731,2.907h0.373c6.889,0,12.473,5.584,12.473,12.473v21.177c-6.764,0-12.247-5.483-12.247-12.247
				v-4.867c-1.618,3.548-3.902,6.872-7.049,9.175c-1.085,0.794-2.286,1.444-3.543,1.935c-2.39,0.934-4.998,1.265-7.492,0.712
				c-3.807-0.844-7.092-3.979-7.727-7.827c1.885,0.643,4.122,0.091,5.49-1.356c1.369-1.447,1.797-3.71,1.051-5.557
				c-0.383-0.947-1.079-1.799-2.019-2.199c-1.33-0.567-2.945-0.116-4.015,0.857c-1.069,0.973-1.815,2.275-2.088,3.695
				c-2.259-3.31-4.203-9.772-3.231-15.42c-2.806,2.06-4.067,6.123-4.521,10.432C310.59,174.259,310.24,170.175,311.586,166.82z"/>
			<path style="opacity:0.4;" d="M311.586,166.82c1.537-3.829,4.995-6.691,8.869-8.109c3.875-1.418,8.132-1.51,12.217-0.935
				c2.521,0.354,5.034,0.966,7.288,2.149c2.254,1.183,4.287,3.074,5.39,5.367l0.478-3.964c0.987,0.202,1.838,0.965,2.145,1.924
				c0.307,0.959-0.045,2.17-0.731,2.907h0.373c6.889,0,12.473,5.584,12.473,12.473v21.177c-6.764,0-12.247-5.483-12.247-12.247
				v-4.867c-1.618,3.548-3.902,6.872-7.049,9.175c-1.085,0.794-2.286,1.444-3.543,1.935c-2.39,0.934-4.998,1.265-7.492,0.712
				c-3.807-0.844-7.092-3.979-7.727-7.827c1.885,0.643,4.122,0.091,5.49-1.356c1.369-1.447,1.797-3.71,1.051-5.557
				c-0.383-0.947-1.079-1.799-2.019-2.199c-1.33-0.567-2.945-0.116-4.015,0.857c-1.069,0.973-1.815,2.275-2.088,3.695
				c-2.259-3.31-4.203-9.772-3.231-15.42c-2.806,2.06-4.067,6.123-4.521,10.432C310.59,174.259,310.24,170.175,311.586,166.82z"/>
		</g>
		<path style="fill:#455A64;" d="M325.61,201.268l-9.152,1.8c-2.023,3.701-4.085,7.178-6.107,10.88
			c-1.524,2.788-3.092,5.753-2.976,8.929c0.123,3.38,2.357,6.593,5.482,7.886l-1.057,12.498c14.374,4.392,31.941,0.532,35.801-2.795
			c1.135-5.238,2.14-10.807,3.275-16.045c0.737-3.403,1.478-6.831,1.549-10.313s-0.57-7.059-2.416-10.012
			c-0.018-0.029-0.037-0.059-0.056-0.088c-2.373-3.724-6.873-5.516-11.234-4.823L325.61,201.268z"/>
		<path style="opacity:0.3;fill:#FFFFFF;" d="M325.61,201.268l-9.152,1.8c-2.023,3.701-4.085,7.178-6.107,10.88
			c-1.524,2.788-3.092,5.753-2.976,8.929c0.123,3.38,2.357,6.593,5.482,7.886l-1.057,12.498c14.374,4.392,31.941,0.532,35.801-2.795
			c1.135-5.238,2.14-10.807,3.275-16.045c0.737-3.403,1.478-6.831,1.549-10.313s-0.57-7.059-2.416-10.012
			c-0.018-0.029-0.037-0.059-0.056-0.088c-2.373-3.724-6.873-5.516-11.234-4.823L325.61,201.268z"/>
		<path style="fill:#455A64;" d="M348.301,246.469c-0.208-0.273-0.379-0.57-0.53-0.875c-11.053,5.825-24.32,7.351-36.397,4.137
			c-2.579,19.189-4.795,51.681-3.434,73.117c1.131,24.954,5.723,60.289,5.723,60.289c5.989,1.797,10.481,0.699,12.178-0.599
			c1.996-24.755,6.388-41.723,2.995-58.093c2.263-11.446,3.727-25.819,3.727-25.819l1.73,25.287l5.856,44.452
			c5.723,2.928,10.514-0.532,10.514-0.532c4.259-25.42,5.856-42.644,2.129-55.26C358.477,270.859,358.767,260.187,348.301,246.469z"
			/>
		<path style="opacity:0.3;" d="M335.08,293.628l3.138-13.169c3.66-0.599,9.383-2.995,12.39-8.016
			c-4.302,3.333-9.743,5.354-15.185,5.354l-2.861,20.828l0.609,8.901l0.246-3.239C333.688,300.697,334.245,297.132,335.08,293.628z"
			/>
		<g>
			<path style="fill:#FFA8A7;" d="M292.512,203.944c-4.403-0.084-9.169-0.503-14.185-1.562c0,0-9.16-10.56-13.315-16.807
				c-0.508-0.764-0.807-1.637-0.886-2.551l0,0c-0.038-0.442-0.022-0.888,0.048-1.327l1.379-8.687
				c0.244-1.537-0.258-3.099-1.351-4.206l-4.559-4.617c-0.37-0.375-0.943-0.461-1.406-0.212c-0.664,0.356-0.832,1.233-0.348,1.81
				l3.364,4.006l-6.456,1.563c-0.756,0.183-1.354,0.76-1.565,1.509l-0.745,2.652c-0.321,1.143,0.264,2.346,1.361,2.799l0.874,0.361
				l0.041,0.612c0.104,1.53,0.403,3.079,1.545,4.102c0.266,0.775,1.218,2.805,1.218,2.805l9.214,23.838
				c1.203,3.111,3.947,5.365,7.233,5.939l15.75,2.753c1.702-1.835,2.936-4.109,3.473-6.555
				C293.796,209.441,293.537,206.54,292.512,203.944z"/>
			<path style="fill:#455A64;" d="M315.027,202.901c-5.665,0.267-14.168,1.202-22.515,1.042c1.025,2.596,1.284,5.497,0.685,8.225
				c-0.538,2.446-1.771,4.72-3.474,6.555l19.662,3.437c4.217,0.737,8.479-2.071,9.498-6.229c0.611-2.49,1.266-4.577,1.643-7.003
				C321.037,205.647,318.346,202.745,315.027,202.901z"/>
			<path style="opacity:0.2;fill:#FFFFFF;" d="M315.027,202.901c-5.665,0.267-14.168,1.202-22.515,1.042
				c1.025,2.596,1.284,5.497,0.685,8.225c-0.538,2.446-1.771,4.72-3.474,6.555l19.662,3.437c4.217,0.737,8.479-2.071,9.498-6.229
				c0.611-2.49,1.266-4.577,1.643-7.003C321.037,205.647,318.346,202.745,315.027,202.901z"/>
		</g>
	</g>
</g>
</svg>
